<svg t="1734444035326" class="icon" viewBox="0 0 1024 1024" version="1.1" xmlns="http://www.w3.org/2000/svg" p-id="11403" width="200" height="200"><path d="M512 64C264.590222 64 64 264.590222 64 512S264.590222 960 512 960 960 759.409778 960 512 759.409778 64 512 64z m176.497778 585.699556L659.911111 688.696889a7.964444 7.964444 0 0 1-11.207111 1.706667l-165.404444-120.604445a7.879111 7.879111 0 0 1-3.299556-6.513778v-275.285333c0-4.408889 3.612444-7.992889 7.992889-7.992889h48.099555c4.408889 0 7.992889 3.584 7.992889 7.992889v247.495111l142.620445 103.111111a7.879111 7.879111 0 0 1 1.792 11.093334z" fill="currentColor" fill-opacity=".65" p-id="11404"></path></svg>